<svg xmlns="http://www.w3.org/2000/svg" xmlns:xlink="http://www.w3.org/1999/xlink" width="500" zoomAndPan="magnify" viewBox="0 0 375 374.999991" height="500" preserveAspectRatio="xMidYMid meet" version="1.0"><defs><clipPath id="416c023355"><path d="M 187.5 0 C 83.945312 0 0 83.945312 0 187.5 C 0 291.054688 83.945312 375 187.5 375 C 291.054688 375 375 291.054688 375 187.5 C 375 83.945312 291.054688 0 187.5 0 Z M 187.5 0 " clip-rule="nonzero"/></clipPath><clipPath id="bfa49cdb0f"><path d="M 111.777344 37.722656 L 189 37.722656 L 189 339.96875 L 111.777344 339.96875 Z M 111.777344 37.722656 " clip-rule="nonzero"/></clipPath><clipPath id="c7cdea7d04"><path d="M 111.777344 37.722656 L 192.777344 37.722656 L 192.777344 331 L 111.777344 331 Z M 111.777344 37.722656 " clip-rule="nonzero"/></clipPath><clipPath id="62bba2a39e"><path d="M 192 37.722656 L 268.5 37.722656 L 268.5 339.96875 L 192 339.96875 Z M 192 37.722656 " clip-rule="nonzero"/></clipPath><clipPath id="407b3224e2"><path d="M 187.5 37.722656 L 268.5 37.722656 L 268.5 331 L 187.5 331 Z M 187.5 37.722656 " clip-rule="nonzero"/></clipPath></defs><rect x="-37.5" width="450" fill="#ffffff" y="-37.499999" height="449.999989" fill-opacity="1"/><rect x="-37.5" width="450" fill="#ffffff" y="-37.499999" height="449.999989" fill-opacity="1"/><g clip-path="url(#416c023355)"><rect x="-37.5" width="450" fill="#8d493a" y="-37.499999" height="449.999989" fill-opacity="1"/></g><g clip-path="url(#bfa49cdb0f)"><path fill="#d0b8a8" d="M 121.742188 341.109375 L 111.898438 341.109375 L 111.898438 75.734375 C 111.898438 65.214844 116.199219 55.65625 123.128906 48.726562 C 130.054688 41.800781 139.613281 37.5 150.132812 37.5 C 160.652344 37.5 170.214844 41.800781 177.140625 48.726562 C 184.066406 55.65625 188.367188 65.214844 188.367188 75.734375 L 188.367188 341.109375 L 178.523438 341.109375 C 178.523438 333.304688 175.328125 326.207031 170.183594 321.0625 C 165.035156 315.910156 157.9375 312.71875 150.132812 312.71875 C 142.328125 312.71875 135.230469 315.910156 130.085938 321.0625 C 124.9375 326.207031 121.742188 333.304688 121.742188 341.109375 M 121.742188 75.734375 L 121.742188 315.5625 C 122.191406 315.066406 122.652344 314.574219 123.128906 314.101562 C 130.050781 307.175781 139.613281 302.875 150.132812 302.875 C 160.652344 302.875 170.210938 307.175781 177.140625 314.101562 C 177.613281 314.574219 178.078125 315.0625 178.523438 315.5625 L 178.523438 75.734375 C 178.523438 67.929688 175.328125 60.832031 170.179688 55.6875 C 165.035156 50.539062 157.9375 47.34375 150.132812 47.34375 C 142.332031 47.34375 135.234375 50.539062 130.085938 55.6875 C 124.9375 60.832031 121.742188 67.929688 121.742188 75.734375 Z M 121.742188 75.734375 " fill-opacity="1" fill-rule="nonzero"/></g><path fill="#d0b8a8" d="M 143.246094 308.484375 C 143.246094 311.203125 141.042969 313.40625 138.324219 313.40625 C 135.605469 313.40625 133.402344 311.203125 133.402344 308.484375 L 133.402344 76.570312 C 133.402344 73.855469 135.605469 71.652344 138.324219 71.652344 C 141.042969 71.652344 143.246094 73.855469 143.246094 76.570312 Z M 143.246094 308.484375 " fill-opacity="1" fill-rule="nonzero"/><path fill="#d0b8a8" d="M 166.863281 308.484375 C 166.863281 311.203125 164.660156 313.40625 161.941406 313.40625 C 159.226562 313.40625 157.019531 311.203125 157.019531 308.484375 L 157.019531 76.570312 C 157.019531 73.855469 159.226562 71.652344 161.941406 71.652344 C 164.660156 71.652344 166.863281 73.855469 166.863281 76.570312 Z M 166.863281 308.484375 " fill-opacity="1" fill-rule="nonzero"/><g clip-path="url(#c7cdea7d04)"><path fill="#d0b8a8" d="M 121.742188 325.855469 C 121.742188 328.570312 119.539062 330.773438 116.820312 330.773438 C 114.101562 330.773438 111.898438 328.570312 111.898438 325.855469 L 111.898438 42.421875 C 111.898438 39.703125 114.101562 37.5 116.820312 37.5 L 270.8125 37.5 C 272.574219 37.5 274.121094 38.429688 274.988281 39.820312 L 353.480469 145.785156 C 355.097656 147.964844 354.640625 151.035156 352.464844 152.648438 C 351.273438 153.53125 349.8125 153.796875 348.46875 153.492188 L 275.734375 138.507812 L 275.734375 325.855469 C 275.734375 328.570312 273.53125 330.773438 270.8125 330.773438 C 268.09375 330.773438 265.890625 328.570312 265.890625 325.855469 L 265.890625 132.488281 L 265.90625 132.488281 C 265.90625 132.167969 265.941406 131.835938 266.003906 131.507812 C 266.546875 128.855469 269.136719 127.144531 271.792969 127.683594 L 337.964844 141.316406 L 268.351562 47.34375 L 121.742188 47.34375 Z M 121.742188 325.855469 " fill-opacity="1" fill-rule="nonzero"/></g><g clip-path="url(#62bba2a39e)"><path fill="#d0b8a8" d="M 258.808594 341.109375 L 268.648438 341.109375 L 268.648438 75.734375 C 268.648438 65.214844 264.347656 55.65625 257.421875 48.726562 C 250.496094 41.800781 240.933594 37.5 230.414062 37.5 C 219.894531 37.5 210.335938 41.800781 203.40625 48.726562 C 196.480469 55.65625 192.179688 65.214844 192.179688 75.734375 L 192.179688 341.109375 L 202.023438 341.109375 C 202.023438 333.304688 205.21875 326.207031 210.367188 321.0625 C 215.515625 315.910156 222.613281 312.71875 230.414062 312.71875 C 238.21875 312.71875 245.316406 315.910156 250.464844 321.0625 C 255.609375 326.207031 258.808594 333.304688 258.808594 341.109375 M 258.808594 75.734375 L 258.808594 315.5625 C 258.355469 315.066406 257.898438 314.574219 257.421875 314.101562 C 250.496094 307.175781 240.933594 302.875 230.414062 302.875 C 219.894531 302.875 210.335938 307.175781 203.40625 314.101562 C 202.933594 314.574219 202.472656 315.0625 202.023438 315.5625 L 202.023438 75.734375 C 202.023438 67.929688 205.21875 60.832031 210.367188 55.6875 C 215.515625 50.539062 222.613281 47.34375 230.414062 47.34375 C 238.21875 47.34375 245.316406 50.539062 250.460938 55.6875 C 255.609375 60.832031 258.808594 67.929688 258.808594 75.734375 Z M 258.808594 75.734375 " fill-opacity="1" fill-rule="nonzero"/></g><path fill="#d0b8a8" d="M 237.304688 308.484375 C 237.304688 311.203125 239.507812 313.40625 242.222656 313.40625 C 244.941406 313.40625 247.144531 311.203125 247.144531 308.484375 L 247.144531 76.570312 C 247.144531 73.855469 244.941406 71.652344 242.222656 71.652344 C 239.503906 71.652344 237.304688 73.855469 237.304688 76.570312 Z M 237.304688 308.484375 " fill-opacity="1" fill-rule="nonzero"/><path fill="#d0b8a8" d="M 213.683594 308.484375 C 213.683594 311.203125 215.886719 313.40625 218.605469 313.40625 C 221.324219 313.40625 223.527344 311.203125 223.527344 308.484375 L 223.527344 76.570312 C 223.527344 73.855469 221.324219 71.652344 218.605469 71.652344 C 215.886719 71.652344 213.683594 73.855469 213.683594 76.570312 Z M 213.683594 308.484375 " fill-opacity="1" fill-rule="nonzero"/><g clip-path="url(#407b3224e2)"><path fill="#d0b8a8" d="M 258.808594 325.855469 C 258.808594 328.570312 261.011719 330.773438 263.726562 330.773438 C 266.445312 330.773438 268.648438 328.570312 268.648438 325.855469 L 268.648438 42.421875 C 268.648438 39.703125 266.445312 37.5 263.726562 37.5 L 109.734375 37.5 C 107.972656 37.5 106.429688 38.429688 105.558594 39.820312 L 27.066406 145.785156 C 25.449219 147.964844 25.90625 151.035156 28.082031 152.648438 C 29.277344 153.53125 30.734375 153.796875 32.078125 153.492188 L 104.816406 138.507812 L 104.816406 325.855469 C 104.816406 328.570312 107.015625 330.773438 109.734375 330.773438 C 112.453125 330.773438 114.65625 328.570312 114.65625 325.855469 L 114.65625 132.488281 L 114.640625 132.488281 C 114.640625 132.167969 114.609375 131.835938 114.542969 131.507812 C 114 128.855469 111.410156 127.144531 108.757812 127.683594 L 42.585938 141.316406 L 112.195312 47.34375 L 258.808594 47.34375 Z M 258.808594 325.855469 " fill-opacity="1" fill-rule="nonzero"/></g></svg>